<?xml version="1.0" standalone="no"?>
<!DOCTYPE svg PUBLIC "-//W3C//DTD SVG 20010904//EN"
 "http://www.w3.org/TR/2001/REC-SVG-20010904/DTD/svg10.dtd">
<svg version="1.0" xmlns="http://www.w3.org/2000/svg"
 width="1024.000000pt" height="1024.000000pt" viewBox="0 0 1024.000000 1024.000000"
 preserveAspectRatio="xMidYMid meet">
<metadata>
Created by potrace 1.16, written by Peter Selinger 2001-2019
</metadata>
<g transform="translate(0.000000,1024.000000) scale(0.100000,-0.100000)"
fill="#000000" stroke="none">
<path d="M4941 8254 c-192 -52 -354 -222 -392 -415 -15 -72 -20 -79 -67 -79
-54 0 -345 -102 -492 -172 -384 -183 -663 -387 -903 -662 -206 -236 -396 -555
-507 -851 -111 -295 -157 -516 -168 -808 -21 -555 77 -952 354 -1433 119 -207
343 -489 500 -630 92 -82 308 -240 427 -313 98 -60 367 -193 472 -234 370
-145 863 -210 1232 -162 263 35 535 103 748 187 299 118 631 329 840 533 161
157 416 493 512 675 22 41 49 93 61 115 127 240 190 431 243 730 27 152 37
511 19 666 -50 442 -202 856 -457 1244 -168 255 -293 393 -548 602 -170 139
-549 350 -748 417 -138 46 -330 98 -392 104 l-60 7 -8 65 c-21 184 -187 364
-382 415 -73 19 -212 18 -284 -1z m272 -158 c82 -29 123 -59 171 -125 54 -74
69 -122 69 -231 1 -114 -20 -176 -88 -262 l-45 -58 -244 0 -244 0 -37 41
c-134 149 -136 423 -2 546 117 108 272 141 420 89z m355 -856 c30 -28 38 -68
21 -99 l-15 -26 -502 -3 c-335 -1 -509 1 -522 8 -15 8 -20 21 -20 50 0 34 5
43 37 65 l38 25 470 0 c460 0 472 -1 493 -20z m209 -94 c4 -39 2 -56 -6 -56
-6 0 -10 -4 -8 -9 3 -14 -24 -51 -75 -101 -44 -43 -47 -49 -54 -114 -4 -37
-13 -74 -21 -81 -10 -11 -13 -33 -9 -87 3 -40 1 -104 -3 -143 -6 -52 -9 -11
-10 162 l-1 231 35 12 c70 23 144 152 133 231 -3 17 -1 26 4 21 5 -5 12 -35
15 -66z m-664 -202 c5 -5 -162 -175 -339 -346 -33 -31 -64 -64 -70 -75 -9 -14
-13 31 -19 195 -4 117 -5 215 -2 218 3 3 15 3 27 -1 16 -5 20 -12 16 -28 -4
-18 0 -16 25 11 l30 32 163 0 c89 0 165 -3 169 -6z m1557 -154 c-23 -74 -47
-166 -55 -205 -18 -97 -60 -258 -71 -278 -8 -14 -14 -10 -37 25 -34 53 -43
101 -28 158 19 73 223 473 229 447 1 -7 -16 -73 -38 -147z m-560 38 c29 -57
78 -152 110 -213 193 -368 214 -407 319 -628 108 -226 107 -248 -9 -155 -94
76 -207 192 -229 236 -10 20 -37 100 -60 177 -22 77 -56 192 -76 255 -19 63
-51 176 -71 250 -60 222 -59 226 16 78z m-2268 37 c28 -70 34 -75 93 -75 30 0
57 -5 63 -12 16 -21 -4 -55 -48 -83 -44 -28 -47 -39 -25 -92 19 -44 19 -73 1
-73 -8 0 -37 16 -65 35 -28 19 -53 35 -57 35 -3 0 -25 -16 -48 -35 -68 -55
-86 -45 -62 35 17 57 18 55 -58 113 -61 47 -48 67 48 76 l60 6 12 48 c18 73
22 79 45 75 15 -2 27 -18 41 -53z m1538 -450 c-22 -29 -120 -128 -217 -221
-216 -207 -444 -438 -459 -466 -21 -39 -26 1 -19 175 7 191 12 237 25 237 5 0
83 74 172 164 90 89 246 240 348 334 l185 171 3 -171 2 -171 -40 -52z m-1989
-278 c4 -14 4 -180 0 -369 -6 -334 -7 -343 -26 -343 -20 0 -20 8 -23 359 -2
358 1 393 31 383 6 -2 14 -15 18 -30z m163 16 c2 -10 2 -178 -2 -373 l-7 -355
-23 -3 -24 -4 4 364 c2 200 7 369 11 376 12 18 35 15 41 -5z m161 -15 c4 -17
4 -186 0 -375 l-7 -343 -24 0 -24 0 0 308 c0 368 5 442 31 442 11 0 20 -11 24
-32z m160 -344 c0 -353 -1 -369 -19 -372 -10 -2 -23 2 -28 10 -5 7 -6 159 -2
368 7 349 9 376 39 367 6 -3 10 -135 10 -373z m150 0 c0 -362 0 -369 -20 -369
-20 0 -20 8 -23 359 -2 359 1 393 32 383 8 -3 11 -113 11 -373z m170 9 c-4
-241 -11 -370 -18 -375 -27 -16 -35 6 -42 118 -10 155 4 607 19 616 6 4 20 8
30 8 18 0 19 -11 11 -367z m-970 295 c3 -35 5 -200 3 -368 l-3 -305 -27 -3
-28 -3 0 370 0 371 24 0 c23 0 25 -5 31 -62z m3873 43 c74 -38 89 -84 41 -127
-10 -9 -19 -23 -19 -29 0 -8 -26 -15 -71 -19 -39 -4 -72 -6 -73 -4 -1 2 -9 19
-19 38 -9 19 -22 43 -29 52 -16 23 14 66 63 90 43 23 61 22 107 -1z m-1704
-112 c18 28 23 -1 29 -155 8 -194 10 -189 -90 -285 -107 -104 -93 -99 -284
-99 -112 0 -169 4 -171 11 -2 6 69 81 157 167 279 272 344 342 339 360 -5 13
-4 14 4 3 7 -9 12 -10 16 -2z m213 -369 c3 -8 5 -23 4 -33 -2 -11 5 -21 18
-24 12 -3 21 -9 21 -14 0 -5 5 -9 11 -9 6 0 17 -7 26 -15 8 -8 20 -12 26 -8 7
4 8 0 4 -11 -27 -70 -12 -153 53 -289 l28 -60 -21 -18 c-12 -10 -28 -18 -34
-19 -7 0 -13 -9 -13 -21 0 -13 -10 -23 -30 -30 -16 -6 -30 -18 -30 -27 0 -12
-3 -13 -11 -5 -8 8 -20 7 -46 -3 -33 -14 -32 -12 22 42 32 31 63 72 71 90 37
89 -7 231 -82 268 l-34 16 2 207 c1 121 4 160 5 93 2 -63 6 -122 10 -130z
m883 -24 c-7 -9 -21 -16 -31 -16 -10 0 -20 -4 -24 -10 -3 -5 -12 -7 -20 -3
-11 4 -15 -2 -15 -21 0 -35 -15 -33 -30 4 -7 16 -18 35 -26 41 -21 17 -17 34
18 84 l32 45 55 -55 c46 -46 52 -56 41 -69z m-354 25 c70 -32 128 -126 127
-207 -1 -130 -130 -234 -260 -209 -44 8 -116 77 -139 131 -30 71 -7 177 53
252 40 49 147 65 219 33z m737 8 c99 -27 173 -152 147 -248 -32 -118 -163
-202 -268 -170 -136 40 -194 190 -129 332 22 48 33 61 69 77 48 22 123 26 181
9z m-1320 -357 c24 -25 15 -63 -26 -104 l-32 -31 -224 6 c-123 4 -320 7 -437
7 l-212 0 -30 25 c-17 14 -34 39 -37 56 -13 60 -26 58 464 62 245 2 461 2 480
0 19 -1 43 -11 54 -21z m1488 -136 c28 -36 98 -66 152 -66 34 0 49 -4 54 -16
11 -28 -23 -49 -80 -48 -112 1 -233 94 -185 142 18 18 38 14 59 -12z m-1930
-127 c74 -6 136 -13 139 -16 3 -3 -14 -22 -37 -43 -45 -40 -77 -50 -152 -50
-84 1 -121 15 -175 69 l-51 51 71 0 c39 0 131 -5 205 -11z m433 -70 c-7 -53 5
-79 37 -79 11 0 19 -4 19 -9 0 -5 12 -12 28 -14 15 -2 -39 -5 -119 -6 l-146
-1 5 33 c6 42 16 53 85 98 36 24 64 35 77 32 18 -5 20 -11 14 -54z m-106 -366
l3 -31 -65 -7 c-61 -7 -66 -9 -66 -31 0 -24 4 -26 83 -39 41 -7 42 -8 27 -36
-8 -15 -22 -19 -61 -19 -36 0 -51 -4 -56 -16 -10 -26 15 -39 74 -39 59 0 82
-16 70 -49 -7 -18 -73 -22 -161 -10 l-46 7 0 102 c0 56 3 123 6 148 l7 46 46
4 c25 2 66 3 91 3 43 -1 45 -2 48 -33z m-1020 -60 c60 -128 85 -205 70 -215
-28 -17 -56 -8 -67 22 -11 33 -16 35 -74 44 -36 5 -38 3 -54 -35 -12 -31 -20
-39 -37 -37 -40 6 -32 50 33 184 34 70 66 124 74 124 7 0 32 -39 55 -87z m332
74 c34 -17 70 -74 70 -109 0 -21 -10 -39 -31 -59 l-30 -28 25 -34 c30 -39 32
-52 10 -61 -29 -11 -53 -6 -59 13 -11 37 -46 71 -71 71 -24 0 -25 -2 -18 -46
l6 -45 -33 3 -34 3 -3 100 c-2 55 0 123 3 151 l6 51 67 2 c37 0 78 -5 92 -12z
m354 -14 c35 -34 43 -69 22 -92 -21 -23 -21 -25 9 -57 14 -15 25 -32 25 -38 0
-23 -41 -77 -65 -86 -25 -9 -171 -7 -181 2 -3 3 -2 71 2 152 l7 146 77 0 c70
0 80 -2 104 -27z m618 16 c27 -14 61 -94 54 -125 -4 -13 -16 -32 -28 -44 l-21
-20 27 -50 c23 -43 25 -51 12 -56 -33 -13 -63 5 -79 46 -12 32 -20 40 -41 40
-22 0 -27 -5 -32 -40 -6 -36 -10 -40 -35 -40 l-29 0 0 150 0 150 76 0 c41 0
84 -5 96 -11z m216 -142 l3 -148 -33 3 -33 3 4 140 c2 77 5 144 8 148 3 5 15
7 26 5 21 -3 22 -8 25 -151z m249 131 c27 -30 54 -85 87 -176 33 -94 33 -102
-3 -102 -23 0 -31 6 -40 31 -10 29 -13 30 -58 28 -65 -3 -73 -7 -73 -35 0 -20
-5 -24 -29 -24 -17 0 -32 4 -35 8 -5 8 78 224 104 273 14 25 22 24 47 -3z
m-2075 -15 c32 -30 35 -58 12 -91 -15 -22 -14 -24 10 -43 36 -28 34 -64 -5
-100 -30 -28 -36 -29 -120 -29 l-89 0 0 145 0 145 82 0 c75 0 84 -2 110 -27z
m-826 -287 c38 -38 43 -70 19 -116 -32 -62 -93 -78 -139 -35 -52 48 -59 100
-18 140 54 54 92 57 138 11z m3803 -2 c26 -21 31 -33 31 -69 0 -90 -99 -130
-161 -64 -46 49 -37 113 19 143 40 22 77 19 111 -10z m-489 -202 c0 -4 24 -37
53 -73 50 -60 244 -340 254 -366 6 -16 -75 -103 -96 -103 -10 0 -44 9 -77 20
-32 11 -108 28 -169 39 -60 11 -118 23 -128 27 -11 4 22 -45 72 -109 50 -64
91 -122 91 -129 0 -7 -33 -35 -73 -61 -68 -45 -73 -47 -85 -30 -15 20 -180
283 -241 385 -23 36 -52 80 -66 96 l-25 30 53 30 c29 16 58 36 65 45 11 13 18
13 63 -4 73 -28 299 -91 314 -87 14 3 -78 132 -138 195 l-30 32 29 11 c65 24
84 33 95 46 12 15 39 19 39 6z m-2775 -53 c31 -12 72 -35 92 -52 33 -29 93
-120 93 -142 0 -15 -93 -85 -112 -85 -8 0 -30 26 -49 57 -34 57 -70 86 -95 76
-26 -10 -14 -65 31 -147 39 -72 45 -91 45 -141 0 -96 -50 -150 -149 -162 -64
-7 -133 10 -195 50 -67 43 -91 71 -122 144 l-27 63 45 42 c25 24 50 52 56 63
13 25 11 27 61 -72 42 -85 89 -133 129 -133 21 0 27 13 23 50 -1 8 -18 41 -37
72 -83 137 -63 268 50 319 53 24 93 24 161 -2z m1962 -223 c19 -18 -81 -139
-128 -155 -25 -8 -31 -6 -49 16 -34 44 -23 76 43 124 35 26 49 30 85 26 24 -3
46 -8 49 -11z m-1537 -40 c6 -8 31 -23 56 -32 24 -9 44 -20 44 -25 0 -4 -18
-52 -41 -106 -22 -54 -66 -159 -97 -233 -59 -145 -106 -235 -119 -234 -17 1
-133 58 -133 64 0 13 130 333 163 400 37 76 99 179 108 180 4 0 12 -7 19 -14z
m399 -132 c44 -17 78 -63 156 -208 26 -47 51 -86 55 -86 5 0 40 39 78 88 103
128 116 138 187 145 l60 6 0 -327 0 -327 -87 -3 -87 -3 5 168 c6 192 17 185
-87 57 -31 -38 -68 -79 -82 -92 l-25 -24 -63 123 c-35 67 -69 124 -75 126 -6
2 -20 -36 -34 -94 -37 -159 -48 -205 -54 -210 -2 -3 -35 5 -73 17 -37 12 -73
23 -80 25 -9 3 -7 19 8 62 10 32 43 166 73 298 30 132 57 248 61 258 9 21 14
21 64 1z m1203 5 c69 -15 99 -31 144 -77 62 -63 88 -126 88 -212 1 -109 -23
-171 -95 -243 -80 -80 -132 -102 -239 -102 -73 0 -93 4 -141 28 -67 32 -127
94 -165 169 -36 68 -38 168 -6 240 29 67 104 142 175 178 67 34 142 39 239 19z"/>
<path d="M4921 8003 c-29 -6 -104 -81 -121 -124 -12 -27 -11 -36 1 -58 8 -14
27 -30 42 -35 24 -9 32 -6 65 25 20 19 57 48 81 63 39 25 43 30 37 59 -6 33
-48 78 -69 76 -7 -1 -23 -4 -36 -6z"/>
<path d="M4781 7681 c-10 -6 -12 -20 -8 -47 12 -71 69 -123 121 -110 26 6 28
10 22 44 -9 55 -55 116 -91 120 -17 1 -36 -2 -44 -7z"/>
<path d="M6015 5570 c-27 -11 -61 -49 -74 -83 -14 -35 0 -92 30 -131 18 -23
28 -26 77 -26 64 0 90 16 116 67 53 105 -43 217 -149 173z"/>
<path d="M6728 5575 c-16 -9 -30 -27 -34 -43 -3 -15 -7 -37 -10 -49 -7 -38 8
-84 41 -119 28 -29 39 -34 78 -34 39 0 49 5 80 39 20 22 39 55 42 74 8 43 -15
100 -50 123 -36 24 -113 28 -147 9z"/>
<path d="M5690 3509 c-55 -22 -110 -99 -110 -154 0 -141 176 -207 284 -107 86
80 70 216 -30 258 -38 16 -107 17 -144 3z"/>
<path d="M1846 5307 c-9 -24 -27 -54 -40 -66 -19 -18 -27 -20 -50 -11 -36 13
-86 13 -86 -1 0 -6 20 -31 45 -57 51 -52 54 -66 24 -124 -17 -33 -19 -46 -10
-64 14 -32 31 -30 85 11 26 19 54 35 64 35 10 0 33 -13 52 -30 38 -32 77 -39
86 -15 3 8 -1 36 -10 62 -23 66 -21 77 24 124 22 23 40 46 40 51 0 4 -33 8
-73 8 -81 0 -87 4 -107 79 -6 22 -14 41 -19 41 -5 0 -16 -20 -25 -43z"/>
<path d="M8335 5306 c-25 -43 -27 -44 -96 -54 -39 -6 -73 -13 -76 -16 -14 -13
10 -56 42 -76 42 -26 43 -39 10 -78 -29 -35 -32 -64 -8 -87 18 -19 67 -17 120
6 29 12 37 11 62 -4 44 -26 75 -22 105 14 32 38 32 50 1 87 -14 17 -25 34 -25
39 0 5 16 24 36 41 20 18 34 37 32 44 -3 7 -27 19 -54 26 -57 16 -77 32 -94
73 -7 16 -16 29 -21 29 -4 0 -20 -20 -34 -44z"/>
<path d="M3485 2604 c-20 -22 -75 -165 -75 -196 0 -19 76 -90 120 -113 66 -34
130 1 130 70 0 33 5 46 22 57 27 18 30 74 5 112 -24 37 -89 77 -139 86 -36 7
-44 5 -63 -16z"/>
<path d="M6603 2533 c-22 -16 -53 -38 -69 -51 l-28 -23 44 -85 c25 -47 59
-102 76 -122 31 -36 31 -36 58 -19 25 17 26 19 11 47 -8 16 -15 31 -15 34 0 2
21 25 48 50 43 41 47 49 47 91 0 40 -5 51 -33 76 -42 38 -86 38 -139 2z"/>
<path d="M3869 2292 c-55 -54 -99 -105 -99 -114 0 -22 60 -50 77 -36 15 12 79
2 109 -17 12 -8 24 -28 27 -45 6 -28 10 -31 39 -28 l33 3 3 146 c3 160 0 168
-62 183 -26 7 -37 -1 -127 -92z"/>
<path d="M6181 2333 c-43 -43 -66 -107 -56 -154 10 -43 64 -95 113 -108 135
-37 254 109 180 219 -37 54 -71 73 -138 78 -59 4 -61 4 -99 -35z"/>
<path d="M4275 2253 c-11 -30 -65 -247 -65 -264 0 -21 18 -28 52 -22 18 3 28
14 35 36 15 52 43 42 68 -23 20 -52 23 -55 58 -58 31 -3 37 0 37 16 0 31 -21
82 -33 82 -7 0 6 11 28 23 51 29 68 62 55 109 -14 49 -33 62 -131 92 -103 31
-95 30 -104 9z"/>
<path d="M5881 2249 c-14 -5 -21 -15 -18 -23 3 -8 9 -30 12 -50 8 -38 2 -42
-69 -48 -27 -3 -30 0 -41 42 -11 44 -12 45 -50 43 -21 -2 -40 -5 -42 -7 -10
-9 46 -284 59 -292 5 -4 25 -3 44 1 38 7 38 4 17 92 -5 24 15 34 79 36 31 2
33 0 41 -45 10 -51 18 -56 62 -36 31 14 31 18 0 148 -14 58 -28 115 -30 128
-6 24 -24 27 -64 11z"/>
<path d="M4685 2133 c-3 -27 -10 -77 -15 -113 -5 -36 -11 -81 -12 -100 l-3
-35 60 -13 c124 -27 152 -1 157 145 3 79 0 94 -17 113 -26 29 -79 50 -126 50
-38 0 -38 0 -44 -47z"/>
<path d="M5365 2157 c-50 -28 -67 -59 -53 -99 13 -36 41 -55 107 -71 37 -8 51
-16 48 -27 -2 -10 -11 -14 -27 -12 -71 10 -105 7 -108 -9 -6 -34 32 -62 91
-67 49 -4 63 -1 96 21 46 30 59 68 36 103 -18 28 -46 44 -105 59 -65 16 -61
41 6 37 78 -5 98 40 33 73 -39 21 -77 18 -124 -8z"/>
<path d="M4983 2134 c-7 -3 -13 -20 -13 -37 0 -31 2 -32 40 -32 47 -1 74 -20
50 -36 -8 -5 -30 -8 -47 -6 l-33 3 0 -63 c0 -35 3 -63 7 -63 3 0 15 8 26 17
18 17 20 17 38 -7 41 -52 49 -60 59 -60 19 0 23 30 10 69 -11 36 -11 39 19 68
39 39 40 73 2 115 -25 28 -35 32 -87 34 -32 2 -65 1 -71 -2z"/>
</g>
</svg>
